<svg preserveAspectRatio="none" width="100%" height="100%" overflow="visible" style="display: block;" viewBox="0 0 50.087 18.3022" fill="none" xmlns="http://www.w3.org/2000/svg">
<g id="Group 5">
<path id="EXPRESS" fill-rule="evenodd" clip-rule="evenodd" d="M50.0868 10.1027H47.4814C46.6951 10.1027 46.124 10.2904 45.7195 10.5823V10.1027H41.8658C41.2495 10.1027 40.5261 10.255 40.184 10.5823V10.1027H33.3023V10.5823C32.7546 10.1884 31.8305 10.1027 31.404 10.1027H26.8647V10.5823C26.4314 10.164 25.4679 10.1027 24.8806 10.1027H19.8004L18.6379 11.357L17.5491 10.1027H9.96032V18.2981H17.4062L18.6041 17.0239L19.7325 18.2981L24.3222 18.3022V16.3743H24.7734C25.3824 16.3837 26.1007 16.3592 26.7343 16.0861V18.2979H30.52V16.1619H30.7026C30.9357 16.1619 30.9586 16.1715 30.9586 16.4037V18.2977H42.4588C43.1889 18.2977 43.9521 18.1114 44.3747 17.7733V18.2977H48.0225C48.7816 18.2977 49.5229 18.1916 50.0869 17.9199C50.0869 -26.9195 50.0868 28.8767 50.0868 10.1027Z" fill="var(--fill-0, #006FCF)"/>
<path id="AMERICAN" fill-rule="evenodd" clip-rule="evenodd" d="M2.40552 8.18971L2.94788 6.88545H4.1621L4.70304 8.18971H9.43574V7.19256L9.85818 8.19396H12.315L12.7375 7.17768V8.18971H24.4992L24.4937 6.04877H24.7212C24.8806 6.05426 24.9271 6.06896 24.9271 6.33126V8.18971H31.0103V7.69131C31.501 7.95344 32.2641 8.18971 33.2684 8.18971H35.8276L36.3752 6.88545H37.5895L38.1251 8.18971H43.0567V6.9508L43.8036 8.18971H47.7555V0H43.8444V0.967214L43.2967 0H39.2835V0.967214L38.7806 0H33.3597C32.4523 0 31.6546 0.126282 31.0103 0.478205V0H27.2694V0.478205C26.8594 0.115478 26.3007 0 25.6795 0H12.0125L11.0955 2.11526L10.1538 0H5.84904V0.967214L5.37614 0H1.70488L0 3.89383V8.18971H2.40552Z" fill="var(--fill-0, #006FCF)"/>
<g id="Subtract">
<path fill-rule="evenodd" clip-rule="evenodd" d="M24.8358 15.1658C26.0664 15.1658 27.2873 14.829 27.2873 13.1974C27.2873 11.5708 26.0321 11.2624 24.9148 11.2624H20.4165L18.6258 13.1876L16.8937 11.2624H11.2316V17.1359H16.8079L18.6094 15.1915L20.3429 17.1359H23.0792V15.1658H24.8358ZM23.0792 13.973H24.8985C25.4394 13.973 25.7759 13.7054 25.7759 13.1974C25.7759 12.6838 25.4231 12.4773 24.9148 12.4773H23.0792V13.973ZM16.0952 15.9119H12.6339V14.7433H15.7246V13.5449H12.6339V12.4771H16.1634L17.7033 14.1887L16.0952 15.9119ZM21.677 16.6017L19.5156 14.2093L21.677 11.8928V16.6017Z" fill="var(--fill-0, white)"/>
<path fill-rule="evenodd" clip-rule="evenodd" d="M33.308 14.8994C33.1879 14.7284 32.9317 14.5217 32.6183 14.4064C32.9889 14.2597 33.616 13.7813 33.6162 12.8439C33.6162 12.1739 33.3368 11.8072 32.8925 11.5396C32.4304 11.2938 31.9113 11.2624 31.1986 11.2624H27.9484V17.1359H29.363V14.9907H30.8675C31.381 14.9907 31.6946 15.041 31.9003 15.2514C32.1359 15.4972 32.1317 15.9457 32.1286 16.2905C32.1282 16.3288 32.1279 16.3657 32.1279 16.401V17.1359H33.5412V15.9715C33.5355 15.4538 33.5068 15.1862 33.308 14.8994ZM31.7681 13.6755C31.5798 13.7869 31.3469 13.7964 31.073 13.7964H29.3628V12.4773H31.0963C31.3469 12.4773 31.5978 12.4826 31.7681 12.5834C31.9506 12.6785 32.0597 12.8604 32.0597 13.1117C32.0597 13.363 31.9506 13.5655 31.7681 13.6755Z" fill="var(--fill-0, white)"/>
<path d="M44.4713 14.0381C44.7455 14.321 44.8924 14.6781 44.8924 15.2825C44.8924 16.5461 44.1006 17.1359 42.6808 17.1359H39.9388V15.8764H42.6698C42.9368 15.8764 43.1262 15.8412 43.2449 15.731C43.3417 15.6401 43.4111 15.5082 43.4111 15.3479C43.4111 15.1768 43.336 15.041 43.2394 14.9595C43.1317 14.8699 42.9832 14.8291 42.738 14.8291C42.6518 14.8262 42.5642 14.8238 42.4757 14.8214C41.2126 14.7872 39.7727 14.7482 39.7727 13.0112C39.7727 12.1593 40.3096 11.2626 41.7855 11.2626H44.6078V12.5127H42.0253C41.7693 12.5127 41.6029 12.5222 41.4613 12.6188C41.3071 12.7139 41.2499 12.855 41.2499 13.0414C41.2499 13.2629 41.3808 13.4136 41.5579 13.4788C41.7064 13.5304 41.866 13.5454 42.1058 13.5454L42.8636 13.5658C43.6279 13.5844 44.1525 13.7162 44.4713 14.0381Z" fill="var(--fill-0, white)"/>
<path d="M50.0869 12.5123H47.5212C47.265 12.5123 47.0948 12.5219 46.9515 12.6184C46.803 12.7135 46.7458 12.8547 46.7458 13.041C46.7458 13.2626 46.8712 13.4133 47.0536 13.4785C47.2021 13.53 47.3617 13.545 47.5962 13.545L48.3591 13.5654C49.1291 13.5844 49.643 13.7163 49.9564 14.0381C50.0045 14.076 50.0364 14.1177 50.0688 14.16L50.0776 14.1715L50.0832 14.1787L50.0869 14.1835V16.3846C49.745 16.8831 49.0786 17.1359 48.1765 17.1359H45.4578V15.8764H48.1655C48.4341 15.8764 48.6221 15.8412 48.7352 15.731C48.8333 15.6401 48.9017 15.5082 48.9017 15.3479C48.9017 15.1768 48.8333 15.041 48.7297 14.9595C48.6276 14.8699 48.4789 14.8291 48.2337 14.8291C48.1473 14.8262 48.0594 14.8238 47.9707 14.8214C46.7032 14.7872 45.2628 14.7483 45.2628 13.0113C45.2628 12.1593 45.8053 11.2626 47.2826 11.2626H50.0868L50.0869 12.5123Z" fill="var(--fill-0, white)"/>
<path d="M34.3968 11.2624H39.0954V12.4771H35.7988V13.5449H39.0149V14.7432H35.7988V15.9118L39.0954 15.9171V17.1359H34.3968V11.2624Z" fill="var(--fill-0, white)"/>
</g>
<path id="AMERICAN_2" fill-rule="evenodd" clip-rule="evenodd" d="M4.51491 4.49386L3.55135 2.15296L2.5933 4.49386H4.51491ZM25.742 3.56177C25.5485 3.67885 25.3197 3.68274 25.0456 3.68274H23.3354V2.37848H25.0689C25.3142 2.37848 25.5702 2.38946 25.7365 2.4844C25.9191 2.56994 26.0321 2.75201 26.0321 3.00351C26.0321 3.26015 25.9246 3.46666 25.742 3.56177ZM37.9425 4.49386L36.9682 2.15296L35.9994 4.49386H37.9425ZM15.2 7.02765H13.7568L13.7515 2.42874L11.7102 7.02765H10.4741L8.42741 2.42466V7.02765H5.56409L5.02315 5.7179H2.09197L1.54553 7.02765H0.0165153L2.53751 1.15565H4.62913L7.02346 6.71523V1.15565H9.32115L11.1635 5.1391L12.856 1.15565H15.1999V7.02765H15.2ZM20.9521 7.02765H16.2492V1.15565H20.9521V2.37844H17.6571V3.43686H20.873V4.64052H17.6571V5.81319H20.9521V7.02765ZM27.5829 2.73709C27.5829 3.67331 26.9562 4.15701 26.591 4.30224C26.899 4.41913 27.1621 4.62565 27.2873 4.79674C27.4861 5.0888 27.5204 5.34968 27.5204 5.87412V7.02765H26.1005L26.0951 6.28714C26.0951 5.9338 26.1291 5.42567 25.8729 5.14317C25.6672 4.93666 25.3536 4.89185 24.8468 4.89185H23.3356V7.02765H21.9279V1.15565H25.1659C25.8853 1.15565 26.4154 1.1746 26.8706 1.4369C27.3159 1.69921 27.5829 2.08213 27.5829 2.73709ZM29.8359 7.02765H28.3994V1.15565H29.8359V7.02765ZM46.5006 7.02765H44.5056L41.8372 2.62037V7.02765H38.9701L38.4223 5.7179H35.4978L34.9663 7.02765H33.319C32.6347 7.02765 31.7683 6.87675 31.2777 6.37818C30.7829 5.87961 30.5255 5.20427 30.5255 4.13646C30.5255 3.2656 30.6793 2.46947 31.2844 1.84037C31.7395 1.37173 32.4523 1.15565 33.4224 1.15565H34.7853V2.41386H33.451C32.9372 2.41386 32.6471 2.49002 32.3677 2.76171C32.1277 3.00896 31.963 3.47636 31.963 4.09183C31.963 4.72093 32.0884 5.17452 32.3501 5.47083C32.5668 5.7032 32.9607 5.77369 33.3313 5.77369H33.9635L35.9477 1.15582H38.057L40.4405 6.70991V1.15582H42.584L45.0587 5.24536V1.15582H46.5006V7.02765Z" fill="var(--fill-0, white)"/>
</g>
</svg>
