<svg width="191" height="60" viewBox="0 0 191 60" fill="none" xmlns="http://www.w3.org/2000/svg">
<g clip-path="url(#clip0_1361_23829)">
<path d="M41.04 12.4375C41.0088 12.1562 40.7591 12.0312 40.5719 12.0312C40.3846 12.0312 36.2962 11.7187 36.2962 11.7187C36.2962 11.7187 33.4562 8.875 33.1129 8.59375C32.8008 8.28125 32.2078 8.375 31.9581 8.4375C31.9269 8.4375 31.334 8.625 30.3665 8.9375C29.399 6.15625 27.7449 3.625 24.78 3.625H24.4991C23.6877 2.5625 22.6266 2.0625 21.7527 2.0625C14.8867 2.0625 11.5786 10.6562 10.5487 15.0312C7.86467 15.875 5.96091 16.4375 5.74244 16.5312C4.2444 17 4.21319 17.0312 4.02594 18.4375C3.86989 19.5 -0.03125 49.7188 -0.03125 49.7188L30.3353 55.4062L46.8137 51.8437C46.8449 51.7812 41.0712 12.7187 41.04 12.4375ZM28.6812 9.375C27.9322 9.59375 27.0271 9.875 26.122 10.1875V9.62499C26.122 7.93749 25.9036 6.5625 25.4978 5.46875C27.0583 5.65625 28.0258 7.375 28.6812 9.375ZM23.5941 5.8125C23.9998 6.875 24.2807 8.375 24.2807 10.4375V10.75C22.5954 11.2812 20.8165 11.8125 18.9751 12.4062C20.005 8.46874 21.9712 6.53125 23.5941 5.8125ZM21.5967 3.875C21.9088 3.875 22.2209 4 22.4705 4.1875C20.2547 5.21875 17.914 7.81249 16.9465 13.0625C15.4797 13.5312 14.0753 13.9375 12.7333 14.375C13.8568 10.375 16.6656 3.875 21.5967 3.875Z" fill="#E6E6E6"/>
<path d="M40.5717 11.9688C40.3844 11.9688 36.296 11.6563 36.296 11.6563C36.296 11.6563 33.456 8.8125 33.1127 8.53125C32.9879 8.40625 32.8318 8.34375 32.707 8.34375L30.4287 55.4062L46.9071 51.8438C46.9071 51.8438 41.1334 12.7188 41.1022 12.4375C40.9774 12.1563 40.7589 12.0313 40.5717 11.9688Z" fill="#BFBFBF"/>
<path d="M24.7802 21.0946L22.7828 27.1259C22.7828 27.1259 20.9727 26.1571 18.8193 26.1571C15.6047 26.1571 15.4487 28.1884 15.4487 28.6884C15.4487 31.4384 22.6268 32.5009 22.6268 38.9696C22.6268 44.0634 19.4122 47.3446 15.0742 47.3446C9.83104 47.3446 7.20947 44.0946 7.20947 44.0946L8.61388 39.4696C8.61388 39.4696 11.3603 41.8446 13.6698 41.8446C15.199 41.8446 15.8232 40.6571 15.8232 39.7821C15.8232 36.1884 9.95588 36.0321 9.95588 30.0946C9.95588 25.1259 13.5137 20.3134 20.723 20.3134C23.407 20.2821 24.7802 21.0946 24.7802 21.0946Z" fill="white"/>
<path d="M66.0384 32.4375C64.3843 31.5625 63.5417 30.7812 63.5417 29.75C63.5417 28.4375 64.7276 27.5937 66.5689 27.5937C68.7224 27.5937 70.6261 28.4688 70.6261 28.4688L72.1242 23.875C72.1242 23.875 70.751 22.8125 66.6938 22.8125C61.0449 22.8125 57.1126 26.0625 57.1126 30.625C57.1126 33.2187 58.9539 35.1875 61.3882 36.5938C63.3856 37.6875 64.0722 38.5 64.0722 39.6875C64.0722 40.9062 63.0735 41.9062 61.2322 41.9062C58.517 41.9062 55.9266 40.5 55.9266 40.5L54.335 45.0937C54.335 45.0937 56.7069 46.6875 60.7016 46.6875C66.5065 46.6875 70.7198 43.8125 70.7198 38.6562C70.6573 35.8437 68.5663 33.9062 66.0384 32.4375ZM89.1956 22.75C86.3243 22.75 84.0773 24.125 82.3608 26.1875L82.2984 26.1562L84.7951 13.1562H78.3348L72.0305 46.2812H78.4908L80.6443 34.9687C81.4869 30.6875 83.7028 28.0312 85.7626 28.0312C87.2294 28.0312 87.7912 29.0312 87.7912 30.4375C87.7912 31.3125 87.7287 32.4375 87.5103 33.3125L85.076 46.2812H91.5363L94.0642 32.9062C94.3451 31.5 94.5323 29.8125 94.5323 28.6562C94.5011 24.9375 92.5974 22.75 89.1956 22.75ZM109.138 22.75C101.336 22.75 96.1864 29.7812 96.1864 37.625C96.1864 42.625 99.2761 46.6875 105.081 46.6875C112.727 46.6875 117.877 39.8437 117.877 31.8125C117.908 27.1562 115.224 22.75 109.138 22.75ZM105.955 41.75C103.739 41.75 102.834 39.875 102.834 37.5C102.834 33.7812 104.738 27.75 108.264 27.75C110.543 27.75 111.323 29.75 111.323 31.6562C111.323 35.625 109.357 41.75 105.955 41.75ZM134.449 22.75C130.08 22.75 127.614 26.625 127.614 26.625H127.552L127.926 23.1562H122.184C121.903 25.5 121.372 29.0938 120.873 31.75L116.41 55.4688H122.87L124.68 45.875H124.836C124.836 45.875 126.178 46.7188 128.613 46.7188C136.228 46.7188 141.19 38.9062 141.19 31.0312C141.159 26.6562 139.193 22.75 134.449 22.75ZM128.269 41.8125C126.584 41.8125 125.585 40.8437 125.585 40.8437L126.647 34.8125C127.396 30.75 129.518 28.0937 131.765 28.0937C133.762 28.0937 134.355 29.9375 134.355 31.6562C134.386 35.8437 131.89 41.8125 128.269 41.8125ZM150.397 13.4688C148.337 13.4688 146.683 15.125 146.683 17.2188C146.683 19.125 147.9 20.4687 149.741 20.4687H149.804C151.832 20.4687 153.549 19.0937 153.58 16.7187C153.611 14.8125 152.332 13.4688 150.397 13.4688ZM141.346 46.25H147.806L152.176 23.25H145.684M168.654 23.2187H164.16L164.378 22.1562C164.753 19.9375 166.064 18 168.248 18C169.403 18 170.308 18.3437 170.308 18.3437L171.557 13.25C171.557 13.25 170.464 12.6875 168.03 12.6875C165.752 12.6875 163.442 13.3437 161.694 14.8437C159.479 16.7187 158.449 19.4375 157.949 22.1875L157.762 23.25H154.735L153.767 28.1562H156.795L153.362 46.2812H159.822L163.255 28.1562H167.718L168.654 23.2187ZM184.227 23.25C184.227 23.25 180.17 33.4687 178.391 39.0625H178.329C178.204 37.25 176.737 23.25 176.737 23.25H169.934L173.835 44.3125C173.897 44.7812 173.866 45.0625 173.679 45.375C172.93 46.8437 171.65 48.25 170.152 49.2812C168.935 50.1562 167.562 50.75 166.469 51.125L168.28 56.625C169.59 56.3437 172.337 55.25 174.615 53.0937C177.549 50.3437 180.295 46.0625 183.104 40.25L191 23.2187H184.227V23.25Z" fill="black"/>
</g>
<defs>
<clipPath id="clip0_1361_23829">
<rect width="191" height="60" fill="white"/>
</clipPath>
</defs>
</svg>
