<svg preserveAspectRatio="none" width="100%" height="100%" overflow="visible" style="display: block;" viewBox="0 0 50.0869 8.0124" fill="none" xmlns="http://www.w3.org/2000/svg">
<g id="Union">
<path d="M19.6742 7.98929C17.2997 7.98929 15.4552 6.24678 15.4552 3.99806C15.4552 1.77665 17.3454 0 19.7062 0C20.3813 0 20.9417 0.136871 21.6246 0.467321V2.2226C20.978 1.61306 20.4133 1.36248 19.6742 1.36248C18.2095 1.36248 17.0621 2.52276 17.0621 3.98737C17.0621 5.53749 18.1735 6.62385 19.7425 6.62385C20.4518 6.62385 21 6.38692 21.6246 5.78629V7.54364C20.9178 7.86281 20.3438 7.98929 19.6742 7.98929Z" fill="var(--fill-0, #E6772F)"/>
<path d="M12.664 3.10351C11.7266 2.77455 11.4527 2.55544 11.4527 2.14215C11.4527 1.66177 11.9423 1.29747 12.6156 1.29747C13.0822 1.29747 13.4666 1.4762 13.8762 1.91294L14.6869 0.89517C14.0171 0.331059 13.2153 0.045441 12.3413 0.045441C10.9271 0.045441 9.8492 0.986912 9.8492 2.23182C9.8492 3.28878 10.3503 3.82498 11.8126 4.33417C12.4238 4.53754 12.7344 4.67649 12.8917 4.77061C13.2032 4.9633 13.3584 5.23942 13.3584 5.55858C13.3584 6.18059 12.8433 6.63782 12.1471 6.63782C11.4058 6.63782 10.8061 6.28272 10.4471 5.61589L9.44244 6.54697C10.1607 7.55405 11.0217 8.00415 12.2079 8.00415C13.8256 8.00415 14.9656 6.96767 14.9656 5.49148C14.9656 4.27508 14.4369 3.72374 12.664 3.10351Z" fill="var(--fill-0, #E6772F)"/>
<path fill-rule="evenodd" clip-rule="evenodd" d="M0 0.172745H2.29011C4.81633 0.172745 6.57866 1.74068 6.57866 3.99801C6.57866 5.12564 6.03848 6.21407 5.12815 6.93495C4.36178 7.54359 3.48744 7.81941 2.27614 7.81941H0V0.172745ZM1.97765 6.52376C2.98634 6.52376 3.61712 6.3385 4.11262 5.91482C4.64908 5.45849 4.97145 4.72425 4.97145 3.98734C4.97145 3.254 4.64908 2.545 4.11262 2.0854C3.59292 1.64064 2.98634 1.46785 1.97765 1.46785H1.5591V6.52376H1.97765Z" fill="var(--fill-0, #E6772F)"/>
<path d="M8.85045 0.172745H7.29755V7.81941H8.85045V0.172745Z" fill="var(--fill-0, #E6772F)"/>
<path d="M34.2501 5.30645L32.1192 0.172745H30.4201L33.8077 8.0124H34.6432L38.0965 0.172745H36.4108L34.2501 5.30645Z" fill="var(--fill-0, #E6772F)"/>
<path d="M43.2228 7.81941H38.8037V0.172745H43.2228V1.46782H40.3628V3.16431H43.1143V4.45969H40.3628V6.52374H43.2228V7.81941Z" fill="var(--fill-0, #E6772F)"/>
<path fill-rule="evenodd" clip-rule="evenodd" d="M49.3919 2.42889C49.3919 0.996941 48.3656 0.172745 46.5663 0.172745H44.2517V7.81941H45.8142V4.74501H46.0168L48.1698 7.81941H50.0869L47.5728 4.59656C48.7478 4.36676 49.3919 3.59898 49.3919 2.42889ZM46.2666 3.68901H45.8142V1.37616H46.292C47.2657 1.37616 47.7872 1.76717 47.7872 2.5121C47.7872 3.27751 47.2657 3.68901 46.2666 3.68901Z" fill="var(--fill-0, #E6772F)"/>
<path d="M26.4741 8.0017C28.7757 8.0017 30.6398 6.21733 30.6398 4.01581C30.6398 1.814 28.7757 0.0293287 26.4741 0.0293287C24.1732 0.0293287 22.3087 1.814 22.3087 4.01581C22.3087 6.21733 24.1732 8.0017 26.4741 8.0017Z" fill="var(--fill-0, #E6772F)"/>
</g>
</svg>
