<svg preserveAspectRatio="none" width="100%" height="100%" overflow="visible" style="display: block;" viewBox="0 0 35.4783 21.9279" fill="none" xmlns="http://www.w3.org/2000/svg">
<g id="Symbol">
<path id="Vector" d="M22.5362 2.34349H12.9427V19.5832H22.5362V2.34349Z" fill="var(--fill-0, #FF5F00)"/>
<path id="Vector_2" d="M13.5518 10.9639C13.5502 9.30364 13.9265 7.66475 14.652 6.17135C15.3775 4.67794 16.4333 3.36916 17.7394 2.34409C16.1219 1.07278 14.1795 0.282162 12.134 0.0626172C10.0885 -0.156927 8.0225 0.203457 6.17214 1.10258C4.32178 2.0017 2.76171 3.40328 1.67026 5.14712C0.578807 6.89096 0 8.9067 0 10.9639C0 13.0212 0.578807 15.0369 1.67026 16.7808C2.76171 18.5246 4.32178 19.9262 6.17214 20.8253C8.0225 21.7244 10.0885 22.0848 12.134 21.8653C14.1795 21.6457 16.1219 20.8551 17.7394 19.5838C16.4333 18.5587 15.3775 17.25 14.652 15.7566C13.9265 14.2631 13.5503 12.6242 13.5518 10.9639V10.9639Z" fill="var(--fill-0, #EB001B)"/>
<path id="Vector_3" d="M35.4783 10.9639C35.4783 13.0212 34.8996 15.0369 33.8082 16.7807C32.7168 18.5246 31.1568 19.9262 29.3065 20.8253C27.4562 21.7244 25.3902 22.0848 23.3447 21.8653C21.2993 21.6457 19.3568 20.8551 17.7395 19.5838C19.0444 18.5577 20.0993 17.2487 20.8247 15.7555C21.5501 14.2624 21.927 12.624 21.927 10.9639C21.927 9.3039 21.5501 7.66553 20.8247 6.17236C20.0993 4.67919 19.0444 3.37019 17.7395 2.34409C19.3568 1.07277 21.2993 0.282157 23.3447 0.0626153C25.3902 -0.156927 27.4562 0.203464 29.3065 1.1026C31.1568 2.00173 32.7168 3.40331 33.8082 5.14715C34.8996 6.891 35.4783 8.90673 35.4783 10.9639V10.9639Z" fill="var(--fill-0, #F79E1B)"/>
<path id="Vector_4" d="M34.4323 17.7575V17.4045H34.5746V17.3326H34.2122V17.4045H34.3545V17.7575H34.4323ZM35.136 17.7575V17.3319H35.0249L34.8971 17.6246L34.7693 17.3319H34.6581V17.7575H34.7366V17.4365L34.8564 17.7132H34.9377L35.0576 17.4358V17.7575H35.136Z" fill="var(--fill-0, #F79E1B)"/>
</g>
</svg>
