<svg width="51" height="13" viewBox="0 0 51 13" fill="none" xmlns="http://www.w3.org/2000/svg">
<path d="M38.4983 2.73535H35.7262C35.537 2.73535 35.3757 2.87315 35.3461 3.06039L34.2251 10.1678C34.2028 10.308 34.3114 10.4344 34.4528 10.4344H35.8754C36.0075 10.4344 36.1206 10.338 36.1412 10.2067L36.4594 8.19203C36.4886 8.00439 36.6503 7.8666 36.8395 7.8666H37.7166C39.5428 7.8666 40.5961 6.98309 40.8717 5.23228C40.9961 4.4663 40.8765 3.86446 40.5179 3.44297C40.1243 2.98014 39.426 2.73535 38.4983 2.73535ZM38.8181 5.33117C38.6669 6.32572 37.907 6.32572 37.1719 6.32572H36.754L37.0479 4.46833C37.0653 4.35606 37.1617 4.27339 37.2756 4.27339H37.4673C37.9674 4.27339 38.44 4.27339 38.684 4.5587C38.8295 4.72892 38.8736 4.98182 38.8181 5.33117Z" fill="#179BD7"/>
<path d="M46.783 5.29914H45.4565C45.3426 5.29914 45.2458 5.38182 45.2287 5.49408L45.17 5.86532L45.0768 5.73077C44.7894 5.31373 44.1491 5.17432 43.5096 5.17432C42.0428 5.17432 40.7905 6.28519 40.5466 7.84349C40.4201 8.62081 40.5996 9.3641 41.0406 9.88245C41.4459 10.3591 42.0238 10.5576 42.7124 10.5576C43.8942 10.5576 44.5495 9.79774 44.5495 9.79774L44.4903 10.1665C44.468 10.3076 44.5767 10.434 44.7189 10.434H45.9141C46.1033 10.434 46.2646 10.2962 46.2942 10.1086L47.012 5.56582C47.0339 5.42599 46.9252 5.29914 46.783 5.29914ZM44.9329 7.88239C44.8056 8.64067 44.203 9.1497 43.4354 9.1497C43.0508 9.1497 42.742 9.02609 42.5442 8.79184C42.348 8.55921 42.2743 8.2281 42.3359 7.85929C42.4562 7.1075 43.0674 6.58185 43.8232 6.58185C44.2001 6.58185 44.5065 6.70708 44.7084 6.94336C44.9114 7.18207 44.9917 7.51521 44.9329 7.88239Z" fill="#179BD7"/>
<path d="M48.3478 2.93021L47.2102 10.1677C47.1879 10.3079 47.2965 10.4344 47.438 10.4344H48.5817C48.7717 10.4344 48.933 10.2966 48.9622 10.1089L50.084 3.00194C50.1063 2.86172 49.9977 2.73486 49.8563 2.73486H48.5756C48.4625 2.73527 48.3652 2.81795 48.3478 2.93021Z" fill="#179BD7"/>
<path d="M18.7283 2.73535H15.9566C15.7669 2.73535 15.6056 2.87315 15.5761 3.06039L14.4551 10.1678C14.4328 10.308 14.5414 10.4344 14.6836 10.4344H16.0069C16.1965 10.4344 16.3578 10.2967 16.3874 10.109L16.6898 8.19203C16.7189 8.00439 16.8807 7.8666 17.0699 7.8666H17.9474C19.7731 7.8666 20.8269 6.98309 21.102 5.23228C21.2261 4.4663 21.1073 3.86446 20.7486 3.44297C20.3547 2.98014 19.656 2.73535 18.7283 2.73535ZM19.0481 5.33117C18.8965 6.32572 18.1366 6.32572 17.4018 6.32572H16.9836L17.277 4.46833C17.2944 4.35606 17.3917 4.27339 17.5052 4.27339H17.6969C18.1974 4.27339 18.6696 4.27339 18.9135 4.5587C19.059 4.72892 19.1036 4.98182 19.0481 5.33117Z" fill="#253B80"/>
<path d="M27.0136 5.29914H25.6863C25.5732 5.29914 25.4756 5.38182 25.4581 5.49408L25.3994 5.86532L25.3066 5.73077C25.0192 5.31373 24.3785 5.17432 23.739 5.17432C22.2722 5.17432 21.0195 6.28519 20.7755 7.84349C20.6487 8.62081 20.829 9.3641 21.27 9.88245C21.6745 10.3591 22.2532 10.5576 22.9418 10.5576C24.1236 10.5576 24.7789 9.79774 24.7789 9.79774L24.7197 10.1665C24.6974 10.3076 24.8061 10.434 24.9475 10.434H26.1431C26.3331 10.434 26.4936 10.2962 26.5236 10.1086L27.241 5.56582C27.2637 5.42599 27.1555 5.29914 27.0136 5.29914ZM25.1635 7.88239C25.0354 8.64067 24.4336 9.1497 23.666 9.1497C23.2806 9.1497 22.9726 9.02609 22.7748 8.79184C22.5786 8.55921 22.5041 8.2281 22.5665 7.85929C22.686 7.1075 23.298 6.58185 24.0539 6.58185C24.4308 6.58185 24.7372 6.70708 24.939 6.94336C25.1412 7.18207 25.2215 7.51521 25.1635 7.88239Z" fill="#253B80"/>
<path d="M34.0824 5.29883H32.7487C32.6214 5.29883 32.5019 5.36205 32.4297 5.46783L30.5902 8.17753L29.8104 5.57361C29.7614 5.41069 29.611 5.29883 29.4408 5.29883H28.1301C27.9708 5.29883 27.8602 5.45446 27.9108 5.60441L29.38 9.91577L27.9988 11.8656C27.8902 12.0192 27.9996 12.2303 28.1873 12.2303H29.5194C29.6458 12.2303 29.7642 12.1687 29.8359 12.065L34.2721 5.66155C34.3783 5.50836 34.2693 5.29883 34.0824 5.29883Z" fill="#253B80"/>
<path d="M2.94481 11.8156L3.15677 10.4692L2.68462 10.4583H0.430054L1.99686 0.523654C2.00173 0.493663 2.01753 0.465699 2.04063 0.44584C2.06374 0.425982 2.09332 0.415039 2.12412 0.415039H5.92564C7.18768 0.415039 8.05863 0.67766 8.51335 1.19601C8.72653 1.43918 8.8623 1.69329 8.92795 1.97293C8.99685 2.26636 8.99807 2.61692 8.93079 3.04449L8.92593 3.0757V3.34967L9.1391 3.47044C9.31864 3.56568 9.4613 3.6747 9.57073 3.79953C9.7531 4.00744 9.87104 4.27168 9.92089 4.58496C9.97236 4.90716 9.95534 5.29055 9.87104 5.72461C9.77377 6.22391 9.61652 6.65878 9.40416 7.01461C9.20881 7.34248 8.95997 7.61442 8.66452 7.82517C8.38245 8.02538 8.04728 8.17736 7.66835 8.27462C7.30116 8.37027 6.88251 8.4185 6.42333 8.4185H6.12747C5.91592 8.4185 5.71044 8.49469 5.54914 8.63127C5.38743 8.77069 5.28044 8.96117 5.24761 9.16948L5.22532 9.29066L4.85084 11.6636L4.83382 11.7507C4.82936 11.7783 4.82166 11.792 4.81031 11.8014C4.80018 11.8099 4.78559 11.8156 4.77141 11.8156H2.94481Z" fill="#253B80"/>
<path d="M9.34093 3.10742C9.32959 3.17997 9.31662 3.25413 9.30203 3.33033C8.8007 5.90426 7.08555 6.79344 4.89502 6.79344H3.77969C3.5118 6.79344 3.28606 6.98797 3.24431 7.25222L2.67328 10.8738L2.51157 11.9004C2.48442 12.0738 2.61816 12.2303 2.79324 12.2303H4.77141C5.00566 12.2303 5.20465 12.06 5.24153 11.829L5.26099 11.7285L5.63344 9.36494L5.65735 9.23525C5.69382 9.00343 5.89322 8.83321 6.12747 8.83321H6.42333C8.33989 8.83321 9.84024 8.05507 10.2788 5.80334C10.4619 4.86269 10.3671 4.07726 9.88239 3.52486C9.73568 3.35829 9.55371 3.22009 9.34093 3.10742Z" fill="#179BD7"/>
<path d="M8.81645 2.89821C8.73985 2.87592 8.66082 2.85565 8.57977 2.83741C8.49831 2.81958 8.41482 2.80378 8.3289 2.79C8.02818 2.74136 7.69869 2.71826 7.34569 2.71826H4.36608C4.29272 2.71826 4.22301 2.73488 4.1606 2.76487C4.02321 2.83093 3.92108 2.96102 3.89636 3.1203L3.2625 7.135L3.24426 7.25212C3.28601 6.98788 3.51175 6.79335 3.77964 6.79335H4.89497C7.0855 6.79335 8.80064 5.90376 9.30198 3.33023C9.31697 3.25404 9.32953 3.17988 9.34088 3.10733C9.21403 3.04005 9.07664 2.9825 8.92871 2.93347C8.89224 2.92131 8.85455 2.90955 8.81645 2.89821Z" fill="#222D65"/>
<path d="M3.89635 3.12025C3.92108 2.96097 4.02321 2.83088 4.1606 2.76522C4.22341 2.73523 4.29272 2.71862 4.36607 2.71862H7.34569C7.69869 2.71862 8.02818 2.74172 8.3289 2.79035C8.41481 2.80413 8.4983 2.81993 8.57976 2.83777C8.66082 2.856 8.73985 2.87627 8.81645 2.89856C8.85454 2.90991 8.89223 2.92166 8.92911 2.93341C9.07704 2.98245 9.21443 3.04041 9.34128 3.10728C9.49043 2.15609 9.34007 1.50845 8.82577 0.922011C8.25878 0.276401 7.23545 0 5.92599 0H2.12447C1.85699 0 1.62881 0.194534 1.58748 0.459182L0.00404827 10.4959C-0.0271583 10.6945 0.126037 10.8736 0.326245 10.8736H2.67322L3.2625 7.13495L3.89635 3.12025Z" fill="#253B80"/>
</svg>
