<svg preserveAspectRatio="none" width="100%" height="100%" overflow="visible" style="display: block;" viewBox="0 0 50.087 16.1756" fill="none" xmlns="http://www.w3.org/2000/svg">
<path id="Text" d="M24.7998 0.285715L21.4536 15.93H17.4061L20.7527 0.285715H24.7998ZM41.8273 10.3874L43.9575 4.51267L45.1834 10.3874H41.8273ZM46.3445 15.93H50.087L46.8174 0.285715H43.3653C42.5873 0.285715 41.9314 0.736805 41.6411 1.43244L35.5683 15.93H39.8188L40.6626 13.5936H45.8544L46.3445 15.93ZM35.7791 10.8227C35.7967 6.69388 30.0715 6.46517 30.1098 4.62034C30.1221 4.05982 30.657 3.46271 31.8259 3.31C32.4054 3.2354 34.0046 3.17488 35.8174 4.01021L36.5264 0.691415C35.5528 0.339198 34.2998 0 32.7407 0C28.7396 0 25.9251 2.12527 25.9026 5.17101C25.8769 7.4233 27.9131 8.67911 29.4441 9.42928C31.0225 10.196 31.5514 10.6876 31.5437 11.3726C31.5328 12.4222 30.285 12.8871 29.1232 12.9047C27.0873 12.9363 25.9071 12.3543 24.9666 11.9159L24.2319 15.3455C25.1791 15.779 26.9244 16.1562 28.7316 16.1756C32.9853 16.1756 35.7664 14.0753 35.7791 10.8227ZM19.0166 0.285715L12.4588 15.93H8.18122L4.95391 3.44476C4.75827 2.67699 4.58762 2.39479 3.99262 2.07037C3.01936 1.54187 1.41274 1.0475 0 0.739973L0.0957085 0.285715H6.98241C7.85961 0.285715 8.64885 0.869458 8.84976 1.88002L10.5545 10.9335L14.7646 0.285715H19.0166Z" fill="var(--fill-0, #1434CB)"/>
</svg>
