<svg width="150" height="60" viewBox="0 0 150 60" fill="none" xmlns="http://www.w3.org/2000/svg">
<g clip-path="url(#clip0_1361_23824)">
<path d="M94.9615 31.8203C88.1457 32.0433 83.9107 33.271 83.9107 37.752C83.9107 40.653 86.2278 43.7979 92.1102 43.7979C99.9968 43.7979 104.207 39.5071 104.207 32.4697L104.207 31.6957C101.442 31.6957 98.0324 31.7197 94.9615 31.8203ZM111.724 41.1182C111.724 43.3016 111.787 45.4568 111.978 47.3976H104.986C104.8 45.7995 104.732 44.2117 104.732 42.6715C100.951 47.3097 96.4549 48.6431 90.2173 48.6431C80.9658 48.6431 76.0122 43.7623 76.0122 38.1168C76.0122 29.9403 82.7496 27.0575 94.4457 26.79C97.6442 26.7171 101.237 26.7063 104.207 26.7063L104.207 25.9074C104.207 20.4335 100.69 18.1829 94.5964 18.1829C90.0726 18.1829 86.7386 20.0515 86.395 23.2803H78.4972C79.333 15.2297 87.8072 13.1936 95.2582 13.1936C104.184 13.1936 111.724 16.3636 111.724 25.7872L111.724 41.1182Z" fill="#BFBFBF"/>
<path d="M29.9454 27.8277C29.6538 20.8093 24.5785 18.1829 19.1542 18.1829C13.3051 18.1829 8.63524 21.1372 7.8172 27.8277H29.9454ZM7.65516 32.8171C8.06081 39.6269 12.7656 43.6544 19.2348 43.6544C23.7168 43.6544 27.7038 41.8316 29.0387 37.8662H36.7913C35.2835 45.9121 26.7183 48.6431 19.3459 48.6431C5.94096 48.6431 0 41.2744 0 31.3372C0 20.3981 6.14485 13.1936 19.4682 13.1936C30.073 13.1936 37.8432 18.7331 37.8432 30.8239V32.8171H7.65516Z" fill="#ABAAAA"/>
<path d="M57.1248 43.5118C64.1106 43.5118 68.8909 38.493 68.8909 30.9192C68.8909 23.3461 64.1106 18.3266 57.1248 18.3266C50.1782 18.3266 45.3582 23.3461 45.3582 30.9192C45.3582 38.493 50.1782 43.5118 57.1248 43.5118ZM37.8428 0H45.3582L45.3574 18.8462C49.0409 14.4654 54.1158 13.1935 59.1109 13.1935C67.4861 13.1935 76.7886 18.8345 76.7886 31.0144C76.7886 41.2136 69.3903 48.643 58.9714 48.643C53.5178 48.643 48.3843 46.6903 45.2184 42.8215C45.2184 44.3667 45.132 45.9242 44.9627 47.3975H37.5869C37.7152 45.0156 37.8427 42.0498 37.8427 39.65L37.8428 0Z" fill="black"/>
<path d="M150 14.4414L126.758 59.9999H118.343L125.025 47.3494L107.534 14.4414H116.328L129.198 40.1527L142.033 14.4414H150Z" fill="#5E5E5E"/>
</g>
<defs>
<clipPath id="clip0_1361_23824">
<rect width="150" height="60" fill="white"/>
</clipPath>
</defs>
</svg>
