<svg width="177" height="60" viewBox="0 0 177 60" fill="none" xmlns="http://www.w3.org/2000/svg">
<g clip-path="url(#clip0_1361_23825)">
<path d="M75.3225 30.7699C75.3225 39.0982 68.8216 45.2351 60.8436 45.2351C52.8656 45.2351 46.3647 39.0982 46.3647 30.7699C46.3647 22.3829 52.8656 16.3047 60.8436 16.3047C68.8216 16.3047 75.3225 22.3829 75.3225 30.7699ZM68.9843 30.7699C68.9843 25.5656 65.2165 22.0047 60.8436 22.0047C56.4707 22.0047 52.7029 25.5656 52.7029 30.7699C52.7029 35.9221 56.4707 39.5351 60.8436 39.5351C65.2165 39.5351 68.9843 35.9156 68.9843 30.7699Z" fill="#5E5E5E"/>
<path d="M106.558 30.7699C106.558 39.0982 100.057 45.2351 92.079 45.2351C84.1009 45.2351 77.6001 39.0982 77.6001 30.7699C77.6001 22.3895 84.1009 16.3047 92.079 16.3047C100.057 16.3047 106.558 22.3829 106.558 30.7699ZM100.22 30.7699C100.22 25.5656 96.4519 22.0047 92.079 22.0047C87.706 22.0047 83.9383 25.5656 83.9383 30.7699C83.9383 35.9221 87.706 39.5351 92.079 39.5351C96.4519 39.5351 100.22 35.9156 100.22 30.7699Z" fill="#BFBFBF"/>
<path d="M136.492 17.1786V43.1482C136.492 53.8308 130.205 58.1938 122.774 58.1938C115.779 58.1938 111.568 53.5047 109.981 49.6699L115.499 47.3677C116.481 49.7221 118.889 52.5003 122.768 52.5003C127.524 52.5003 130.472 49.559 130.472 44.0221V41.9416H130.251C128.832 43.696 126.099 45.2286 122.65 45.2286C115.434 45.2286 108.822 38.9286 108.822 30.8221C108.822 22.6569 115.434 16.3047 122.65 16.3047C126.093 16.3047 128.826 17.8373 130.251 19.5395H130.472V17.1851H136.492V17.1786ZM130.921 30.8221C130.921 25.7286 127.531 22.0047 123.217 22.0047C118.844 22.0047 115.18 25.7286 115.18 30.8221C115.18 35.8634 118.844 39.5351 123.217 39.5351C127.531 39.5351 130.921 35.8634 130.921 30.8221Z" fill="black"/>
<path d="M146.415 1.95703V44.3483H140.233V1.95703H146.415Z" fill="#ABAAAA"/>
<path d="M170.506 35.5295L175.425 38.8164C173.838 41.1708 170.011 45.2273 163.4 45.2273C155.201 45.2273 149.077 38.8751 149.077 30.7621C149.077 22.1599 155.253 16.2969 162.691 16.2969C170.18 16.2969 173.844 22.2708 175.041 25.499L175.699 27.1425L156.404 35.1512C157.882 38.0534 160.179 39.5338 163.4 39.5338C166.627 39.5338 168.866 37.9425 170.506 35.5295ZM155.363 30.3251L168.261 24.9577C167.552 23.1512 165.417 21.8925 162.905 21.8925C159.684 21.8925 155.201 24.7425 155.363 30.3251Z" fill="#5E5E5E"/>
<path d="M22.9646 27.0066V20.8697H43.5994C43.8011 21.9393 43.9052 23.2045 43.9052 24.574C43.9052 29.1784 42.6493 34.8719 38.6017 38.9284C34.6648 43.0371 29.6346 45.2284 22.9711 45.2284C10.6201 45.2284 0.234375 35.1458 0.234375 22.7675C0.234375 10.3892 10.6201 0.306641 22.9711 0.306641C29.8038 0.306641 34.6713 2.9936 38.3284 6.49577L34.0075 10.8262C31.3851 8.36099 27.8321 6.4436 22.9646 6.4436C13.9454 6.4436 6.8914 13.7284 6.8914 22.7675C6.8914 31.8066 13.9454 39.0914 22.9646 39.0914C28.8147 39.0914 32.1464 36.7371 34.2808 34.5979C36.0118 32.8632 37.1506 30.3849 37.5996 27.0001L22.9646 27.0066Z" fill="black"/>
</g>
<defs>
<clipPath id="clip0_1361_23825">
<rect width="177" height="60" fill="white"/>
</clipPath>
</defs>
</svg>
