<svg width="199" height="40" viewBox="0 0 199 40" fill="none" xmlns="http://www.w3.org/2000/svg">
<g clip-path="url(#clip0_1361_23826)">
<path d="M6.51998 26.3791C6.51998 28.6785 7.02588 30.444 7.68711 31.512C8.55406 32.911 9.84714 33.5037 11.1654 33.5037C12.8657 33.5037 14.4212 33.0827 17.4188 28.9466C19.8202 25.6314 22.6499 20.978 24.5538 18.0607L27.7781 13.1183C30.0179 9.68586 32.6104 5.87016 35.5828 3.28377C38.0094 1.17277 40.6271 0 43.2615 0C47.6844 0 51.8974 2.55707 55.1217 7.35288C58.6504 12.6052 60.3633 19.2209 60.3633 26.0482C60.3633 30.1068 59.5615 33.089 58.197 35.445C56.8787 37.7236 54.3094 40 49.9872 40V33.5037C53.688 33.5037 54.6116 30.111 54.6116 26.2283C54.6116 20.6953 53.3186 14.555 50.47 10.1675C48.4485 7.0555 45.8288 5.15393 42.9466 5.15393C39.8294 5.15393 37.3209 7.49948 34.5017 11.6817C33.0029 13.9037 31.4643 16.6115 29.7366 19.667L27.8348 23.0283C24.0143 29.7864 23.0466 31.3257 21.1364 33.866C17.7882 38.3141 14.9292 40 11.1654 40C6.70051 40 3.87714 38.0712 2.12854 35.1644C0.701118 32.7958 0 29.688 0 26.1466L6.51998 26.3791Z" fill="#BFBFBF"/>
<path d="M5.14062 7.81152C8.12982 3.21466 12.4436 0 17.3913 0C20.2566 0 23.1052 0.846073 26.0797 3.26911C29.3334 5.91832 32.8012 10.2806 37.1276 17.4702L38.6788 20.0503C42.4237 26.2743 44.5544 29.4764 45.8013 30.9864C47.405 32.9257 48.5281 33.5037 49.987 33.5037C53.6878 33.5037 54.6114 30.111 54.6114 26.2283L60.3631 26.0482C60.3631 30.1068 59.5612 33.089 58.1968 35.445C56.8785 37.7236 54.3092 40 49.987 40C47.3001 40 44.9196 39.4178 42.2873 36.9403C40.2637 35.0387 37.898 31.6607 36.078 28.6241L30.6643 19.6021C27.948 15.0743 25.4563 11.6984 24.0141 10.1696C22.4629 8.52565 20.4687 6.54031 17.2863 6.54031C14.7107 6.54031 12.5234 8.34346 10.6929 11.1016L5.14062 7.81152Z" fill="#BFBFBF"/>
<path d="M17.2866 6.54031C14.7109 6.54031 12.5236 8.34346 10.6931 11.1016C8.10484 14.999 6.51998 20.8042 6.51998 26.3791C6.51998 28.6785 7.02588 30.444 7.68711 31.512L2.12854 35.1644C0.701118 32.7958 0 29.688 0 26.1466C0 19.7068 1.77169 12.9948 5.14083 7.81152C8.13003 3.21466 12.4438 0 17.3915 0L17.2866 6.54031Z" fill="#BFBFBF"/>
<path d="M73.0381 1.26562H80.5804L93.4041 24.4112L106.23 1.26562H113.608V39.297H107.456V10.1494L96.2086 30.3337H90.4359L79.1907 10.1494V39.297H73.0381V1.26562ZM132.887 15.4457C128.475 15.4457 125.817 18.7588 125.181 22.8614H140.157C139.848 18.6353 137.405 15.4457 132.887 15.4457ZM119.081 25.1986C119.081 16.5661 124.673 10.2834 132.994 10.2834C141.179 10.2834 146.066 16.4866 146.066 25.6593V27.3452H125.181C125.922 31.808 128.89 34.8154 133.676 34.8154C137.495 34.8154 139.882 33.6531 142.144 31.5274L145.413 35.5211C142.333 38.3463 138.416 39.9756 133.458 39.9756C124.451 39.9756 119.081 33.4227 119.081 25.1986ZM153.526 15.9902H147.863V10.9641H153.526V2.65201H159.462V10.9641H168.067V15.9902H159.462V28.7295C159.462 33.0792 160.856 34.6248 164.282 34.6248C165.846 34.6248 166.742 34.4908 168.067 34.2709V39.2426C166.417 39.7075 164.843 39.9211 163.138 39.9211C156.729 39.9211 153.526 36.4279 153.526 29.4353V15.9902ZM193.064 20.8782C191.871 17.875 189.212 15.6635 185.303 15.6635C180.223 15.6635 176.972 19.2593 176.972 25.1169C176.972 30.8279 179.965 34.5976 185.06 34.5976C189.065 34.5976 191.924 32.273 193.064 29.3808V20.8782ZM199 39.297H193.173V35.3305C191.544 37.6656 188.58 39.9756 183.779 39.9756C176.058 39.9756 170.899 33.5274 170.899 25.1169C170.899 16.6269 176.182 10.2834 184.107 10.2834C188.024 10.2834 191.097 11.8457 193.173 14.6038V10.9641H199V39.297Z" fill="black"/>
</g>
<defs>
<clipPath id="clip0_1361_23826">
<rect width="199" height="40" fill="white"/>
</clipPath>
</defs>
</svg>
