<svg width="188" height="50" viewBox="0 0 188 50" fill="none" xmlns="http://www.w3.org/2000/svg">
<g clip-path="url(#clip0_1361_23828)">
<path d="M70.0619 10.2266H59.6931C58.9835 10.2266 58.3801 10.7417 58.2694 11.4417L54.0758 38.0129C53.9924 38.5372 54.3988 39.0099 54.9309 39.0099H59.8811C60.5906 39.0099 61.1941 38.4947 61.3047 37.7932L62.4358 30.6266C62.5449 29.925 63.1499 29.4099 63.8579 29.4099H67.1403C73.9705 29.4099 77.9124 26.1069 78.9419 19.5614C79.4058 16.6978 78.9616 14.4478 77.6198 12.872C76.1461 11.1417 73.5323 10.2266 70.0619 10.2266ZM71.2581 19.9311C70.6911 23.6493 67.8483 23.6493 65.0996 23.6493H63.535L64.6326 16.7053C64.6978 16.2857 65.0617 15.9766 65.4862 15.9766H66.2033C68.0758 15.9766 69.8421 15.9766 70.7548 17.0432C71.2991 17.6796 71.4658 18.625 71.2581 19.9311Z" fill="black"/>
<path d="M101.056 19.8107H96.0908C95.6678 19.8107 95.3024 20.1198 95.2372 20.5394L95.0173 21.9273L94.6702 21.4243C93.5952 19.8652 91.1982 19.344 88.8058 19.344C83.3189 19.344 78.6325 23.497 77.7198 29.3228C77.2453 32.2288 77.92 35.0076 79.5695 36.9455C81.0826 38.7273 83.2476 39.4697 85.8235 39.4697C90.2446 39.4697 92.6961 36.6288 92.6961 36.6288L92.4748 38.0076C92.3914 38.5349 92.7977 39.0076 93.3269 39.0076H97.7994C98.5105 39.0076 99.1109 38.4925 99.2231 37.791L101.907 20.8076C101.992 20.2849 101.587 19.8107 101.056 19.8107ZM94.135 29.4682C93.6559 32.3031 91.4044 34.2061 88.5329 34.2061C87.091 34.2061 85.9388 33.744 85.1989 32.8682C84.4651 31.9985 84.1861 30.7607 84.4196 29.3819C84.8669 26.5713 87.1562 24.6061 89.9838 24.6061C91.3938 24.6061 92.54 25.0743 93.295 25.9576C94.0516 26.8501 94.3518 28.0955 94.135 29.4682Z" fill="black"/>
<path d="M127.5 19.8105H122.511C122.035 19.8105 121.587 20.0469 121.317 20.4424L114.436 30.5727L111.519 20.8378C111.335 20.2287 110.773 19.8105 110.136 19.8105H105.233C104.637 19.8105 104.223 20.3924 104.413 20.953L109.909 37.0712L104.742 44.3605C104.335 44.9348 104.745 45.7242 105.447 45.7242H110.43C110.903 45.7242 111.346 45.4939 111.614 45.106L128.21 21.1666C128.607 20.5939 128.199 19.8105 127.5 19.8105Z" fill="black"/>
<path d="M144.02 10.2266H133.65C132.942 10.2266 132.339 10.7417 132.228 11.4417L128.034 38.0129C127.951 38.5372 128.357 39.0099 128.886 39.0099H134.208C134.702 39.0099 135.125 38.6493 135.203 38.1584L136.393 30.6266C136.502 29.925 137.107 29.4099 137.815 29.4099H141.096C147.927 29.4099 151.868 26.1069 152.899 19.5614C153.364 16.6978 152.917 14.4478 151.575 12.872C150.103 11.1417 147.491 10.2266 144.02 10.2266ZM145.217 19.9311C144.651 23.6493 141.808 23.6493 139.058 23.6493H137.495L138.594 16.7053C138.659 16.2857 139.02 15.9766 139.446 15.9766H140.163C142.034 15.9766 143.802 15.9766 144.715 17.0432C145.259 17.6796 145.424 18.625 145.217 19.9311Z" fill="#ABAAAA"/>
<path d="M175.013 19.8107H170.051C169.625 19.8107 169.262 20.1198 169.199 20.5394L168.979 21.9273L168.63 21.4243C167.555 19.8652 165.16 19.344 162.767 19.344C157.28 19.344 152.595 23.497 151.683 29.3228C151.21 32.2288 151.881 35.0076 153.531 36.9455C155.047 38.7273 157.209 39.4697 159.785 39.4697C164.206 39.4697 166.658 36.6288 166.658 36.6288L166.436 38.0076C166.353 38.5349 166.759 39.0076 167.291 39.0076H171.762C172.47 39.0076 173.074 38.4925 173.185 37.791L175.87 20.8076C175.951 20.2849 175.545 19.8107 175.013 19.8107ZM168.092 29.4682C167.616 32.3031 165.361 34.2061 162.49 34.2061C161.051 34.2061 159.896 33.744 159.156 32.8682C158.422 31.9985 158.146 30.7607 158.376 29.3819C158.827 26.5713 161.113 24.6061 163.941 24.6061C165.351 24.6061 166.497 25.0743 167.252 25.9576C168.011 26.8501 168.312 28.0955 168.092 29.4682Z" fill="#ABAAAA"/>
<path d="M180.867 10.9549L176.611 38.0125C176.528 38.5367 176.934 39.0095 177.463 39.0095H181.742C182.453 39.0095 183.056 38.4943 183.165 37.7928L187.362 11.2231C187.445 10.6989 187.039 10.2246 186.51 10.2246H181.719C181.296 10.2261 180.932 10.5352 180.867 10.9549Z" fill="#ABAAAA"/>
<path d="M11.016 44.172L11.8089 39.1387L10.0426 39.0978H1.6084L7.46975 1.95684C7.48795 1.84472 7.54708 1.74018 7.6335 1.66593C7.71991 1.59169 7.83059 1.55078 7.94582 1.55078H22.1671C26.8883 1.55078 30.1465 2.5326 31.8476 4.47048C32.6451 5.37957 33.153 6.32957 33.3986 7.37502C33.6563 8.47199 33.6609 9.7826 33.4092 11.3811L33.391 11.4978V12.522L34.1885 12.9735C34.8601 13.3296 35.3938 13.7371 35.8032 14.2038C36.4854 14.9811 36.9266 15.969 37.1131 17.1402C37.3057 18.3447 37.242 19.7781 36.9266 21.4008C36.5628 23.2674 35.9745 24.8932 35.18 26.2235C34.4493 27.4493 33.5184 28.4659 32.4131 29.2538C31.3579 30.0023 30.104 30.5705 28.6865 30.9341C27.3128 31.2917 25.7467 31.472 24.0289 31.472H22.9221C22.1307 31.472 21.362 31.7568 20.7586 32.2674C20.1537 32.7887 19.7534 33.5008 19.6306 34.2796L19.5472 34.7326L18.1463 43.6038L18.0827 43.9296C18.066 44.0326 18.0372 44.0841 17.9947 44.119C17.9568 44.1508 17.9022 44.172 17.8492 44.172H11.016Z" fill="black"/>
<path d="M34.9438 11.6172C34.9013 11.8884 34.8528 12.1657 34.7982 12.4505C32.9228 22.0732 26.5065 25.3975 18.3118 25.3975H14.1394C13.1373 25.3975 12.2928 26.1248 12.1366 27.1126L10.0004 40.652L9.39546 44.4899C9.29388 45.1384 9.79421 45.7232 10.4492 45.7232H17.8494C18.7257 45.7232 19.4701 45.0869 19.6081 44.2232L19.6809 43.8475L21.0742 35.0111L21.1637 34.5263C21.3001 33.6596 22.046 33.0232 22.9224 33.0232H24.0291C31.1989 33.0232 36.8116 30.1142 38.4521 21.696C39.1374 18.1793 38.7826 15.2429 36.9693 13.1778C36.4205 12.5551 35.7397 12.0384 34.9438 11.6172Z" fill="#ABAAAA"/>
<path d="M32.982 10.8348C32.6954 10.7515 32.3998 10.6757 32.0966 10.6076C31.7918 10.5409 31.4795 10.4818 31.1581 10.4303C30.0331 10.2485 28.8005 10.1621 27.4799 10.1621H16.3334C16.0589 10.1621 15.7982 10.2242 15.5647 10.3364C15.0507 10.5833 14.6687 11.0697 14.5762 11.6651L12.2049 26.6742L12.1367 27.1121C12.2929 26.1242 13.1374 25.397 14.1395 25.397H18.3119C26.5066 25.397 32.9228 22.0712 34.7983 12.45C34.8544 12.1651 34.9014 11.8879 34.9438 11.6167C34.4693 11.3651 33.9553 11.15 33.4019 10.9667C33.2655 10.9212 33.1245 10.8773 32.982 10.8348Z" fill="#5E5E5E"/>
<path d="M14.576 11.6652C14.6685 11.0697 15.0506 10.5833 15.5646 10.3379C15.7996 10.2258 16.0588 10.1636 16.3332 10.1636H27.4798C28.8004 10.1636 30.033 10.25 31.158 10.4318C31.4794 10.4833 31.7917 10.5424 32.0964 10.6091C32.3997 10.6773 32.6953 10.753 32.9819 10.8364C33.1244 10.8788 33.2654 10.9227 33.4033 10.9667C33.9567 11.15 34.4707 11.3667 34.9452 11.6167C35.5032 8.06061 34.9407 5.63939 33.0167 3.44697C30.8957 1.03333 27.0674 0 22.1688 0H7.94753C6.94689 0 6.09331 0.727273 5.93866 1.71667L0.0151443 39.2394C-0.101598 39.9818 0.471499 40.6515 1.22047 40.6515H10.0004L12.2048 26.6742L14.576 11.6652Z" fill="black"/>
</g>
<defs>
<clipPath id="clip0_1361_23828">
<rect width="188" height="50" fill="white"/>
</clipPath>
</defs>
</svg>
