<svg width="200" height="50" viewBox="0 0 200 50" fill="none" xmlns="http://www.w3.org/2000/svg">
<g clip-path="url(#clip0_1361_23827)">
<path fill-rule="evenodd" clip-rule="evenodd" d="M8.35477 3.5193e-07H41.6452C43.8614 -0.000642452 45.9873 0.879304 47.5545 2.4462C49.1218 4.01309 50.0025 6.13852 50.0025 8.35477V41.6427C50.0025 46.2584 46.2607 50 41.6452 50H8.35477C3.74016 49.9986 0 46.2575 0 41.6427V8.35477C0 3.74055 3.74055 3.5193e-07 8.35477 3.5193e-07ZM38.2805 40.9102C39.7368 40.9102 40.9175 39.7295 40.9175 38.2732L40.9102 11.7292C40.9102 10.2728 39.7295 9.09223 38.2732 9.09223H11.7316C11.0318 9.09223 10.3607 9.37039 9.86614 9.86543C9.37155 10.3605 9.09402 11.0318 9.09466 11.7316V38.2732C9.09466 39.7295 10.2753 40.9102 11.7316 40.9102H38.2805Z" fill="#3E4348"/>
<path d="M19.696 31.7794C18.8647 31.7728 18.1943 31.0971 18.1944 30.2658V19.6695C18.1924 19.2667 18.351 18.8798 18.6352 18.5944C18.9192 18.3089 19.3054 18.1484 19.7081 18.1484H30.319C30.7215 18.1491 31.1072 18.3098 31.3913 18.5951C31.6752 18.8804 31.834 19.2669 31.8327 19.6695V30.2633C31.834 30.6658 31.6752 31.0524 31.3913 31.3376C31.1072 31.6231 30.7215 31.7837 30.319 31.7844L19.696 31.7794Z" fill="#3E4348"/>
<path d="M75.4452 22.7723C73.8974 22.3502 72.4322 21.9523 71.2945 21.4453C69.1888 20.5041 68.2088 19.1989 68.2088 17.3407C68.2088 13.828 71.6049 12.2463 74.9867 12.2463C78.2008 12.2463 81.0077 13.5757 82.8927 15.9871L83.0211 16.152L85.7381 14.027L85.6072 13.862C83.1013 10.6744 79.3897 8.92773 75.1515 8.92773C72.3304 8.92773 69.7442 9.68946 67.874 11.0746C65.7683 12.6151 64.6572 14.8493 64.6572 17.5154C64.6572 23.7136 70.4938 25.2248 75.1856 26.4402C79.9331 27.692 82.8417 28.6429 82.8417 32.2623C82.8417 35.8259 79.9597 38.1282 75.5008 38.1282C73.2958 38.1282 69.2131 37.5436 66.6465 33.6234L66.5277 33.4388L63.6699 35.5082L63.7815 35.6757C66.2074 39.3484 70.3945 41.4566 75.2827 41.4566C81.9222 41.4566 86.3858 37.7084 86.3858 32.1338C86.3858 25.7536 80.3163 24.1016 75.4452 22.7723Z" fill="#3E4348"/>
<path fill-rule="evenodd" clip-rule="evenodd" d="M108.045 21.483V18.128H111.239V49.9945H108.045V37.5447C106.22 40.0459 103.484 41.4141 100.267 41.4141C94.1927 41.4141 89.9473 36.5502 89.9473 29.5272C89.9473 22.5043 94.2023 17.6016 100.267 17.6016C103.462 17.6016 106.198 18.977 108.045 21.483ZM93.3145 29.4884C93.3145 35.9897 97.0382 38.3066 100.524 38.3066L100.531 38.3088C105.095 38.3088 108.045 34.8157 108.045 29.4884C108.045 24.1611 105.09 20.7164 100.524 20.7164C95.2091 20.7164 93.3145 25.2479 93.3145 29.4884Z" fill="#3E4348"/>
<path d="M132.361 18.1287V30.7068C132.361 35.11 129.346 38.3073 125.193 38.3073C121.743 38.3073 120.065 36.2598 120.065 32.0509V18.1287H116.87V32.7034C116.87 38.1616 119.836 41.4195 124.805 41.4195C127.9 41.4195 130.559 40.1073 132.364 37.7079V40.9004H135.559V18.1287H132.361Z" fill="#3E4348"/>
<path fill-rule="evenodd" clip-rule="evenodd" d="M141.575 20.5207C143.93 18.6697 147.128 17.6096 150.342 17.6096C155.419 17.6096 158.449 20.135 158.44 24.3705V40.9055H155.242V38.3801C153.629 40.4008 151.295 41.4246 148.292 41.4246C143.399 41.4246 140.357 38.7487 140.357 34.4453C140.357 28.8487 145.631 27.9705 147.877 27.5969C148.244 27.5364 148.622 27.4783 149 27.4198L149.014 27.4178C152.084 26.9453 155.252 26.4578 155.252 23.8539C155.252 20.9064 151.426 20.6784 150.255 20.6784C148.185 20.6784 145.262 21.2921 143.275 23.0144L143.094 23.1721L141.424 20.6396L141.575 20.5207ZM143.693 34.2658C143.693 37.9144 147.128 38.3096 148.605 38.3096C151.817 38.3096 155.257 36.5971 155.25 31.7842V28.4896C153.691 29.4739 151.473 29.8585 149.495 30.2014L149.461 30.2073L148.469 30.3844C145.301 30.9714 143.693 31.7283 143.693 34.2658Z" fill="#3E4348"/>
<path d="M176.949 18.5589C176.19 18.018 174.994 17.6953 173.747 17.6953C171.185 17.729 168.787 18.9642 167.272 21.0309V18.1199H164.078V40.8893H167.272V28.7113C167.272 23.3113 170.307 20.8926 173.313 20.8926C174.193 20.8809 175.064 21.0657 175.863 21.4336L176.079 21.5476L177.09 18.6511L176.949 18.5589Z" fill="#3E4348"/>
<path fill-rule="evenodd" clip-rule="evenodd" d="M177.886 29.5764C177.886 22.5318 182.279 17.6096 188.56 17.6096C194.61 17.6096 198.838 21.9786 198.826 28.2446C198.824 28.7894 198.794 29.3335 198.736 29.8748L198.717 30.0617H181.25C181.33 35.076 184.348 38.3096 188.979 38.3096C191.633 38.3096 193.933 37.2303 195.454 35.2676L195.592 35.0883L197.906 37.1501L197.778 37.3053C196.24 39.1805 193.436 41.4173 188.802 41.4173C182.276 41.4173 177.886 36.6601 177.886 29.5764ZM188.472 20.6759C184.569 20.6759 181.801 23.2448 181.369 27.2453H195.449C195.173 24.0285 193.208 20.6759 188.472 20.6759Z" fill="#3E4348"/>
</g>
<defs>
<clipPath id="clip0_1361_23827">
<rect width="200" height="50" fill="white"/>
</clipPath>
</defs>
</svg>
